PathFileType	4	(X/Y/Z)	66_1_52_p1_0-239_filt_butterworth.trc
DataRate	CameraRate	NumFrames	NumMarkers	Units	OrigDataRate	OrigDataStartFrame	OrigNumFrames
52.0	52.0	7	27	m	52.0	0	239
Frame#	Time	RHip			RKnee			RAnkle			RBigToe			RSmallToe			RHeel			LHip			LKnee			LAnkle			LBigToe			LSmallToe			LHeel			Neck			Head			Nose			RShoulder			RElbow			RWrist			RThumb			RIndex			RPinky			LShoulder			LElbow			LWrist			LThumb			LIndex			LPinky			
		X1	Y1	Z1	X2	Y2	Z2	X3	Y3	Z3	X4	Y4	Z4	X5	Y5	Z5	X6	Y6	Z6	X7	Y7	Z7	X8	Y8	Z8	X9	Y9	Z9	X10	Y10	Z10	X11	Y11	Z11	X12	Y12	Z12	X13	Y13	Z13	X14	Y14	Z14	X15	Y15	Z15	X16	Y16	Z16	X17	Y17	Z17	X18	Y18	Z18	X19	Y19	Z19	X20	Y20	Z20	X21	Y21	Z21	X22	Y22	Z22	X23	Y23	Z23	X24	Y24	Z24	X25	Y25	Z25	X26	Y26	Z26	X27	Y27	Z27	
0	0.0	0.542496844277791	0.8728507639188117	0.7314295610450465	0.5568613739380265	1.0223276512954147	1.2141522223785357	0.5416268508506068	1.1389100189273293	1.5890902989221076	0.4950693210429681	0.9349457282891493	1.6612905527326196	0.5632190656054656	0.9531070822812086	1.6465545118818241	0.5161801695368861	1.2591681318969103	1.6579381117835204	0.37610296562318524	0.8746522331968372	0.7492436444968185	0.35619438558685723	1.0358051354435174	1.2008373828493382	0.361836336781425	1.1717348788289474	1.5956860157071227	0.3422363469548453	0.9497660367397417	1.6441702688332762	0.29108549323960237	1.0137297287126152	1.6396098849752412	0.37901375454479463	1.2660281496189278	1.6575370519095964	0.4681173286779722	0.754071889871371	0.17850110412018344	0.46714425669356485	0.6611317988947365	-0.06838537451659807	0.46098921497384937	0.6197240084067244	0.08014435943738775	0.5867438326451148	0.7429541230076928	0.2760173142788315	0.6108194122928766	0.78569418482251	0.5544499870279238	0.49236249457720194	0.726357588180912	0.7494668330126789	0.4056557557902983	0.7474966552203816	0.8540768599597	0.4102679991129506	0.7689092400646864	0.873959958893157	0.43700358354221913	0.775856800478238	0.8873763133337339	0.32512890685335966	0.8289123185466944	0.2704455191505265	0.2993707221922544	0.8091860290585042	0.5235136988893497	0.38516136488761127	0.6959280372303953	0.7305458259296338	0.45089129946675	0.700442673131342	0.8203943269794505	0.4442295414839809	0.7251541095684277	0.8554377738524157	0.4073962475709104	0.7351543535132394	0.8498272049821021
1	0.0192307692307692	0.5477006087138777	0.8719865010514329	0.7311412677123312	0.5593255560224316	1.0233033038061148	1.215629213627574	0.5458131345978786	1.1438787518396263	1.5888208801416628	0.49446194342812594	0.933412898210977	1.6575044598533988	0.5640543149987921	0.9443150243518935	1.6408616409323264	0.5164502048142554	1.264088974001642	1.6575537148678108	0.37441003156110925	0.879703024252335	0.7485736297906115	0.3555390845717014	1.0361050000638508	1.2025296758180724	0.36198355361990536	1.1715375418157166	1.5954418568590345	0.34300433679247444	0.9490710568499983	1.6391925801711291	0.2892906323273666	1.0241214502770168	1.6417427704040333	0.38102365552587136	1.2762526795950961	1.6575696909251758	0.46827288431451014	0.7537820352458212	0.18090996385738362	0.4672692023237862	0.6610794138277534	-0.06827492795851986	0.4601514446730533	0.6326275966336425	0.07885733372285056	0.5894525852849276	0.7434628273279472	0.27610489093368007	0.6090802205560659	0.7801238738048161	0.5519336913735154	0.49369700054600985	0.7229054333145193	0.7514336986077192	0.4076622545081201	0.7430173464309858	0.8545258415452217	0.41410829851135494	0.7607625754912017	0.876880833590429	0.4388035530369021	0.7802871991803577	0.8883345839764523	0.32502827438136406	0.8281349072353632	0.26904841728086204	0.29467529364191425	0.7988196572008219	0.5218658870521744	0.3872499054112917	0.6899168032254982	0.7324777477647074	0.4524702140877341	0.6993389270253791	0.824507050750359	0.44853767507332176	0.728589918022863	0.8584513065830894	0.40835238795836215	0.7361951576721064	0.8542441847183251
2	0.0384615384615384	0.550421624070826	0.8713502198507346	0.7309283751200769	0.5605639530667348	1.023759385052579	1.2162651837338216	0.5487727325168142	1.1432889683922949	1.5867829222014507	0.4940837031896591	0.9326141464203382	1.6555249477197895	0.5644305093116865	0.9397470774927539	1.6371361273060696	0.5166051483641336	1.2635922793963452	1.655447608620739	0.373632517587512	0.8822567561091457	0.7488702883366636	0.35493842657687386	1.0360778721685806	1.2029780500756784	0.3619357863954561	1.1714458338317975	1.595324961165072	0.3434193783548848	0.9487361462344102	1.636421338873122	0.2889725415385076	1.0294471566527716	1.6419060948974866	0.3820549702264374	1.2812058435566758	1.6575693269153553	0.4683632425192039	0.7536567361513202	0.18217469587625412	0.46735427699862353	0.6610701804831258	-0.06821249552249378	0.4604167477783519	0.6415441836907831	0.07834285075979973	0.5908299327689052	0.7435215646039611	0.2757978250285195	0.6091442707720094	0.7746036512749782	0.5505621835514865	0.49494250659937744	0.7185938203741712	0.7523170163878808	0.40981540136216676	0.7437660387259966	0.8565890976966075	0.4172621802562684	0.7599700410223786	0.8807441698126971	0.4410027466637756	0.7850615394436017	0.8892950695328186	0.3250183863040389	0.8276789796998538	0.2681440543919361	0.29282875747104564	0.7935640275556579	0.5203477842978279	0.38836628686694386	0.691314754705231	0.7340377502395095	0.4534522544761084	0.6988239540970663	0.826621489866617	0.45097062690573364	0.7306654156452674	0.8596915567138261	0.40894608092231144	0.73706975490035	0.8572710859157878
3	0.0576923076923076	0.5506783143672267	0.8708927202234974	0.7307596797519706	0.5606575233453184	1.0235904778849902	1.2158021837276782	0.5505686981703383	1.1393158949321849	1.5847328625062609	0.49389973645422536	0.932365866010685	1.6552545130612486	0.5644214238134702	0.9389941679774598	1.6358182665288605	0.5183002535068826	1.259824324235385	1.6532914253058	0.37399325889843954	0.8812213899296877	0.7500921294748886	0.35432660197770915	1.0354341493724648	1.2021153976746017	0.3618009059807502	1.1715503184107592	1.5953654707008877	0.34345100479685414	0.9488621497555451	1.6353956162183962	0.2893871742162501	1.0303364795615122	1.6411196471030207	0.3821646333301705	1.2816992158958285	1.657709492375107	0.4683977450656264	0.7536917717902394	0.18234806310555202	0.46740331465661594	0.6611165883052368	-0.06820021772550845	0.46124371890283306	0.6451747787928698	0.07825223614519873	0.5909486141761059	0.7430834752704203	0.2747603855927949	0.6109640786472021	0.7710210365811276	0.550297739989374	0.49570771718335166	0.7152514695294326	0.752405739389488	0.41185702767329224	0.746967513957433	0.85848009283626	0.41992097906111975	0.7649698623875496	0.8841428595230042	0.4426260494732034	0.7884761753268675	0.8900639718066126	0.3250422730438836	0.8273644710168432	0.2674218951019546	0.29341369770653297	0.7932487768978195	0.5194202788459055	0.3889295897357381	0.6969107823103813	0.7346377181493217	0.45423214020169633	0.6990891513591841	0.8265389757468509	0.4521934710631659	0.7311031519316675	0.8585777119941134	0.40913792286515815	0.7372523537801781	0.8580345389193637
4	0.0769230769230769	0.5500600500095708	0.8706322547658503	0.730816060205884	0.56043055154002	1.0233189953914343	1.215014618142182	0.552110202095724	1.136624643349653	1.584834494082924	0.4937527454692888	0.9320851574354823	1.6554165432556807	0.5643393300174389	0.9395380957381838	1.635876075999136	0.521760933829466	1.2574343968022528	1.6535237185180836	0.37463707775051985	0.8788173469939373	0.7511147472320676	0.3538892755146712	1.0344989326402565	1.2010291175233816	0.3618235912267181	1.1718022554626057	1.5954819857660696	0.3433389252666504	0.9492264019282819	1.6348741224092265	0.2892242483192883	1.0300790266952489	1.6410452495472736	0.38201977824765504	1.2816340813870188	1.6581398877505857	0.4684280392009915	0.7537824783035183	0.18215118456537366	0.4674385365905743	0.66118350137161	-0.06821245970490003	0.46171285818794283	0.6453783701125058	0.07789851081323865	0.5906523167057266	0.7424995808584349	0.27330809129665	0.6131537515081182	0.7701408537219159	0.5501219390984463	0.4958868665127745	0.7140988030080737	0.7520722541892515	0.4134870348025609	0.7482777281890243	0.8582415197480981	0.4218777382321716	0.7691299065073328	0.8847653277258745	0.44334172124129934	0.7905633613913121	0.890661829266491	0.32503415834492133	0.8270960033449006	0.2667850865811396	0.2946938303315483	0.7944189170958755	0.5192029867297149	0.3899149823559106	0.6992924607058673	0.7337546595921451	0.45560618255588003	0.6996563523386964	0.8256554893313917	0.4540104736063584	0.7305433493911959	0.8566428556027038	0.4092087139323096	0.7367554286395535	0.8566465414391464
5	0.0961538461538461	0.5496245435904709	0.8706833381513024	0.7315197140401027	0.56027349791565	1.0234592451583446	1.2143999348564076	0.553072517695029	1.1375780298909024	1.586650821873941	0.49364058288003576	0.9319475986678668	1.655077127318318	0.5643203419563008	0.9402685058746991	1.6359098514986157	0.5240791115366875	1.2576917764839672	1.65584613130686	0.37477814031162343	0.8778428436808239	0.7516218323682956	0.3539593906632289	1.0343039773150118	1.2012501041758856	0.36210715033916463	1.17213496996404	1.595617017743015	0.34329354859247646	0.9496417852648777	1.6346536721469067	0.28862860069905727	1.030118099132619	1.6415605985816413	0.38201356509171314	1.2820006930832466	1.658655616476267	0.4684839098778818	0.7538401204343901	0.18201560936466665	0.46744332340146527	0.6611515750792512	-0.06821532960589582	0.461752430182338	0.6447360765335203	0.07735766444551116	0.5903712180651136	0.7420356293521686	0.2722586729380966	0.6145125944677565	0.7704593930573478	0.5491378055593602	0.49579317672855805	0.7139507061348302	0.7503993531915715	0.41465516776668543	0.7480033114849424	0.856764903404512	0.4226848487669413	0.7697977306088463	0.882750985837262	0.4442860060999294	0.7937792204877394	0.8911833165413472	0.32501922936250716	0.8270259201150739	0.2664922413085259	0.29588439985443965	0.7947996921849902	0.5193045615479233	0.391288660774944	0.6979065731057765	0.731652859743547	0.4575309218357698	0.6989051385294854	0.8249529961314908	0.45649312506425255	0.7286382624805018	0.8555735117505833	0.40963688533243725	0.736760047521515	0.8544023342333503
6	0.1153846153846153	0.5496297443608369	0.8711489519951866	0.7330665656437575	0.5600624683268721	1.023984324850135	1.2134553194400874	0.5519903811297233	1.1429848866914387	1.5886105248257159	0.4938725527278005	0.9334567115902404	1.6544341704826862	0.5643425520964902	0.9412559826629746	1.6351224028643307	0.522554289550894	1.2595361801722615	1.657597947697727	0.3745838190294752	0.8785271021336576	0.7526883053423497	0.35444690735429535	1.0352358689788208	1.2029369655531672	0.3625491988014233	1.172597053805035	1.595805333981614	0.34336032594824123	0.9501219286700021	1.6353203040733204	0.28826591798666124	1.0302977052731943	1.6419204607153417	0.3820811584678814	1.28136745805276	1.6588695230357495	0.46856743307384163	0.753824501767667	0.1819832398858659	0.4673699811231214	0.6608778836557375	-0.06817558802190656	0.46165792160832586	0.6443565115328745	0.07678865583992514	0.5901485337643964	0.7416353451976916	0.27189328432299764	0.6151296279134114	0.7705286622441062	0.5475058862835551	0.4956529670480041	0.7135785395344123	0.746401679997139	0.41553069941842624	0.7475777297360411	0.8552942738457374	0.4231420172841501	0.7690911412423689	0.8805662983952733	0.4460958962165208	0.7982743889674071	0.891321597192124	0.325022390691222	0.8271517235087871	0.2664780238780839	0.29634985273855174	0.7944478905436192	0.5194010952384106	0.39218568339199916	0.6962913192125357	0.728965166175932	0.4592235130992802	0.6948666821498479	0.8238123637133781	0.4584543664370069	0.7235724944449609	0.8548070259246101	0.410962136003971	0.7378264226164051	0.8529038028784575
